<svg width="565" height="619" viewBox="0 0 565 619" fill="none" xmlns="http://www.w3.org/2000/svg">
<path d="M355 1.99994C266 18 131 64.5 150 179C157 124.5 207 111.5 216 111H236V181C241.5 197 251 236 328 236V111H397C486 111 539.5 10 546 2L355 1.99994Z" fill="black" stroke="black"/>
<path d="M210 618C299 602 434 555.5 415 441C408 495.5 358 508.5 349 509H329V439C323.5 423 314 384 237 384V509H168C79.0001 509 25.5001 610 19.0001 618L210 618Z" fill="black" stroke="black"/>
<path d="M253 1H214C1.49995 16 -40.5 335 214 347.5H301C494 363.5 481 572.5 320 618L360 616C569 586 599 291.5 360 271L257 271.5C80 250 78.5 56 253 1Z" fill="black" stroke="black"/>
<path d="M367 192V209H376L403 232C423.5 236.5 566.5 283.5 554 432C561.144 409.345 564.121 388.546 563.786 369.5C561.518 240.584 407.514 192 367 192Z" fill="black"/>
<path d="M367 166V192C407.514 192 561.518 240.584 563.786 369.5V305C553 213 424.5 171.5 367 166Z" fill="#D9D9D9"/>
<path d="M367 192V209H376L403 232C423.5 236.5 566.5 283.5 554 432C561.144 409.345 564.121 388.546 563.786 369.5M367 192V166C424.5 171.5 553 213 563.786 305V369.5M367 192C407.514 192 561.518 240.584 563.786 369.5" stroke="black"/>
<path d="M197.811 424V407H188.811L161.811 384C141.311 379.5 -1.68872 332.5 10.8113 184C3.66725 206.655 0.690369 227.454 1.02538 246.5C3.29295 375.416 157.297 424 197.811 424Z" fill="black"/>
<path d="M197.811 450V424C157.297 424 3.29295 375.416 1.02538 246.5V311C11.8113 403 140.311 444.5 197.811 450Z" fill="#D9D9D9"/>
<path d="M197.811 424V407H188.811L161.811 384C141.311 379.5 -1.68872 332.5 10.8113 184C3.66724 206.655 0.690366 227.454 1.02538 246.5M197.811 424V450C140.311 444.5 11.8113 403 1.02538 311V246.5M197.811 424C157.297 424 3.29296 375.416 1.02538 246.5" stroke="black"/>
</svg>
