<svg width="165" height="165" viewBox="0 0 165 165" fill="none" xmlns="http://www.w3.org/2000/svg">
<g clip-path="url(#clip0_2_24)">
<path fill-rule="evenodd" clip-rule="evenodd" d="M145.43 122.006H110.087C109.344 122.006 108.658 121.61 108.287 120.966L105.862 116.766L100.395 118.855C99.5887 119.163 98.6718 118.94 98.0973 118.292C97.5296 117.653 96.9241 117.047 96.2979 116.493C95.6489 115.919 95.424 115.002 95.7332 114.193L97.8214 108.727L95.0189 107.109L91.3331 111.646C90.7869 112.319 89.8817 112.582 89.0601 112.307C88.2524 112.037 87.4243 111.816 86.6004 111.648C85.7511 111.475 85.0976 110.794 84.9604 109.938L84.0363 104.165H80.801L79.8773 109.938C79.7405 110.794 79.087 111.475 78.2378 111.648C77.4059 111.817 76.5782 112.039 75.7777 112.306C74.9564 112.579 74.0504 112.317 73.5043 111.645L69.8189 107.108L67.0164 108.727L69.1049 114.192C69.4141 115.001 69.1896 115.917 68.541 116.492C67.9076 117.053 67.3013 117.658 66.7408 118.291C66.1671 118.939 65.2509 119.163 64.4421 118.854L58.9765 116.766L56.5516 120.967C56.1797 121.61 55.4933 122.006 54.7503 122.006L19.4094 122.006C13.6407 122.006 8.94733 117.313 8.94733 111.545V10.9683C8.94733 5.19996 13.6404 0.506958 19.4094 0.506958H145.431C151.199 0.506958 155.892 5.19962 155.892 10.9683V111.545C155.892 117.313 151.199 122.006 145.43 122.006ZM111.289 117.847H145.43C148.905 117.847 151.732 115.019 151.732 111.545V10.9682C151.732 7.4933 148.905 4.66622 145.43 4.66622H19.4091C15.9342 4.66622 13.1068 7.4933 13.1068 10.9682V111.545C13.1068 115.019 15.9342 117.846 19.4091 117.846H53.5504L56.2618 113.15C56.7728 112.265 57.8507 111.883 58.8054 112.248L64.6255 114.471C64.6577 114.439 64.6898 114.406 64.7219 114.374L62.498 108.555C62.1333 107.6 62.5162 106.522 63.401 106.011L69.2751 102.62C70.1599 102.108 71.2851 102.316 71.9291 103.109L75.8541 107.94C75.8999 107.928 75.9452 107.915 75.9906 107.903L76.9744 101.757C77.1354 100.748 78.0062 100.006 79.0278 100.006H85.8102C86.8322 100.006 87.7026 100.748 87.8643 101.757L88.8478 107.904C88.8935 107.916 88.9385 107.928 88.9846 107.94L92.9093 103.109C93.5533 102.316 94.6784 102.108 95.5632 102.62L101.438 106.012C102.323 106.522 102.705 107.601 102.341 108.555L100.117 114.375C100.149 114.407 100.181 114.439 100.213 114.471L106.034 112.248C106.988 111.882 108.067 112.266 108.577 113.15L111.289 117.847Z" fill="white"/>
<path fill-rule="evenodd" clip-rule="evenodd" d="M33.1434 30.299C27.8513 30.299 23.5457 25.9937 23.5457 20.7017C23.5457 15.4099 27.8513 11.1043 33.1434 11.1043C38.4351 11.1043 42.7407 15.4096 42.7407 20.7017C42.7407 25.9938 38.4351 30.299 33.1434 30.299ZM33.1434 15.2641C30.1447 15.2641 27.7054 17.7038 27.7054 20.7021C27.7054 23.7 30.1447 26.1397 33.1434 26.1397C36.1417 26.1397 38.581 23.7 38.581 20.7021C38.581 17.7038 36.1417 15.2641 33.1434 15.2641Z" fill="white"/>
<path fill-rule="evenodd" clip-rule="evenodd" d="M66.5453 30.299C61.2536 30.299 56.9484 25.9937 56.9484 20.7017C56.9484 15.4099 61.2536 11.1043 66.5453 11.1043C71.8374 11.1043 76.1431 15.4096 76.1431 20.7017C76.1427 25.9938 71.8374 30.299 66.5453 30.299ZM66.5453 15.2641C63.5474 15.2641 61.1081 17.7038 61.1081 20.7021C61.1081 23.7 63.5474 26.1397 66.5453 26.1397C69.544 26.1397 71.9833 23.7 71.9833 20.7021C71.9833 17.7038 69.544 15.2641 66.5453 15.2641Z" fill="white"/>
<path fill-rule="evenodd" clip-rule="evenodd" d="M139.212 22.7818H88.8905C87.7416 22.7818 86.8107 21.8506 86.8107 20.7019C86.8107 19.5533 87.7416 18.6221 88.8905 18.6221H139.212C140.361 18.6221 141.292 19.5533 141.292 20.7019C141.292 21.8509 140.361 22.7818 139.212 22.7818Z" fill="white"/>
<path fill-rule="evenodd" clip-rule="evenodd" d="M153.812 40.8963H11.0274C9.87841 40.8963 8.94751 39.9651 8.94751 38.8165C8.94751 37.6678 9.87841 36.7366 11.0274 36.7366H153.812C154.961 36.7366 155.892 37.6678 155.892 38.8165C155.892 39.9651 154.961 40.8963 153.812 40.8963Z" fill="white"/>
<path fill-rule="evenodd" clip-rule="evenodd" d="M119.132 61.4521H109.092C107.943 61.4521 107.012 60.5212 107.012 59.3722C107.012 58.2236 107.943 57.2923 109.092 57.2923H119.132C120.281 57.2923 121.212 58.2236 121.212 59.3722C121.212 60.5212 120.281 61.4521 119.132 61.4521ZM96.086 61.4521H45.7071C44.5581 61.4521 43.6272 60.5212 43.6272 59.3722C43.6272 58.2236 44.5581 57.2923 45.7071 57.2923H96.086C97.2346 57.2923 98.1655 58.2236 98.1655 59.3722C98.1655 60.5212 97.2346 61.4521 96.086 61.4521Z" fill="white"/>
<path fill-rule="evenodd" clip-rule="evenodd" d="M102.589 67.9555C97.8562 67.9555 94.006 64.1049 94.006 59.3718C94.006 54.6391 97.8562 50.7889 102.589 50.7889C107.322 50.7889 111.172 54.6391 111.172 59.3718C111.172 64.1053 107.322 67.9555 102.589 67.9555ZM102.589 54.9486C100.15 54.9486 98.1653 56.9333 98.1653 59.3722C98.1653 61.8119 100.15 63.7961 102.589 63.7961C105.028 63.7961 107.012 61.8119 107.012 59.3722C107.012 56.9333 105.028 54.9486 102.589 54.9486Z" fill="white"/>
<path fill-rule="evenodd" clip-rule="evenodd" d="M119.131 83.6096H68.7521C67.6035 83.6096 66.6723 82.6787 66.6723 81.5301C66.6723 80.3811 67.6035 79.4502 68.7521 79.4502H119.131C120.28 79.4502 121.211 80.3811 121.211 81.5301C121.211 82.6787 120.28 83.6096 119.131 83.6096ZM55.7461 83.6096H45.7061C44.5575 83.6096 43.6262 82.6787 43.6262 81.5301C43.6262 80.3811 44.5575 79.4502 45.7061 79.4502H55.7461C56.8947 79.4502 57.8259 80.3811 57.8259 81.5301C57.8259 82.6787 56.8947 83.6096 55.7461 83.6096Z" fill="white"/>
<path fill-rule="evenodd" clip-rule="evenodd" d="M62.2495 90.1127C57.5168 90.1127 53.6666 86.2625 53.6666 81.5298C53.6666 76.7971 57.5168 72.9465 62.2495 72.9465C66.9826 72.9465 70.8328 76.7971 70.8328 81.5298C70.8328 86.2625 66.9822 90.1127 62.2495 90.1127ZM62.2495 77.1059C59.8106 77.1059 57.8263 79.0905 57.8263 81.5298C57.8263 83.9691 59.8106 85.9533 62.2495 85.9533C64.6888 85.9533 66.673 83.9691 66.673 81.5298C66.673 79.0905 64.6888 77.1059 62.2495 77.1059Z" fill="white"/>
<path fill-rule="evenodd" clip-rule="evenodd" d="M85.8104 164.332H79.028C78.0064 164.332 77.136 163.59 76.9746 162.581L75.9912 156.434C75.9454 156.422 75.8997 156.41 75.8544 156.398L71.9297 161.229C71.2853 162.022 70.1601 162.23 69.275 161.719L63.4008 158.326C62.5156 157.815 62.1335 156.737 62.4983 155.783L64.7221 149.963C64.69 149.931 64.6579 149.899 64.6258 149.867L58.8057 152.091C57.851 152.455 56.773 152.072 56.262 151.188L52.8703 145.313C52.3593 144.429 52.5668 143.304 53.3601 142.66L58.1907 138.735C58.1783 138.689 58.1662 138.643 58.1541 138.597L52.0086 137.615C50.9998 137.453 50.2575 136.582 50.2575 135.56V128.778C50.2575 127.756 50.9994 126.885 52.0086 126.724L58.1541 125.74C58.1662 125.695 58.1783 125.649 58.1904 125.603L53.3601 121.679C52.5668 121.035 52.3597 119.91 52.8703 119.025L56.262 113.15C56.773 112.266 57.8513 111.883 58.8057 112.248L64.6258 114.471C64.6579 114.439 64.69 114.407 64.7221 114.375L62.4983 108.555C62.1335 107.6 62.5168 106.522 63.4012 106.011L69.2753 102.62C70.1605 102.109 71.2853 102.317 71.9293 103.109L75.854 107.94C75.8997 107.928 75.9454 107.915 75.9912 107.903L76.9746 101.758C77.1356 100.749 78.0064 100.007 79.028 100.007L85.8112 100.007C86.8328 100.007 87.7036 100.749 87.865 101.758L88.848 107.904C88.8937 107.917 88.9391 107.929 88.9848 107.941L92.9095 103.11C93.5535 102.317 94.6787 102.109 95.5635 102.62L101.438 106.012C102.323 106.523 102.706 107.601 102.341 108.555L100.117 114.376C100.149 114.408 100.181 114.44 100.213 114.472L106.034 112.248C106.989 111.883 108.067 112.266 108.577 113.151L111.969 119.025C112.48 119.91 112.272 121.035 111.479 121.679L106.649 125.604C106.661 125.65 106.673 125.695 106.685 125.741L112.831 126.724C113.839 126.886 114.582 127.756 114.582 128.778V135.561C114.582 136.582 113.84 137.453 112.831 137.615L106.685 138.598C106.673 138.644 106.661 138.689 106.648 138.735L111.479 142.66C112.272 143.304 112.48 144.429 111.969 145.314L108.577 151.188C108.066 152.074 106.988 152.456 106.034 152.091L100.213 149.867C100.181 149.9 100.149 149.932 100.117 149.963L102.341 155.784C102.706 156.739 102.322 157.817 101.438 158.328L95.5638 161.719C94.6791 162.23 93.5543 162.022 92.9099 161.229L88.9852 156.399C88.9395 156.411 88.8937 156.423 88.8476 156.436L87.8646 162.581C87.7028 163.59 86.8324 164.332 85.8104 164.332ZM80.8014 160.172H84.0367L84.96 154.4C85.0972 153.543 85.7514 152.862 86.6014 152.69C87.4284 152.523 88.2557 152.301 89.0612 152.032C89.8821 151.757 90.7884 152.021 91.3342 152.693L95.0192 157.23L97.8214 155.611L95.7335 150.145C95.4244 149.336 95.6485 148.421 96.2967 147.846C96.9301 147.285 97.5356 146.679 98.0961 146.046C98.6702 145.399 99.5868 145.174 100.396 145.483L105.862 147.571L107.48 144.769L102.943 141.083C102.27 140.537 102.007 139.631 102.282 138.809C102.551 138.002 102.773 137.176 102.94 136.351C103.112 135.501 103.793 134.847 104.649 134.71L110.422 133.786V130.551L104.65 129.627C103.794 129.49 103.113 128.836 102.94 127.986C102.773 127.16 102.551 126.332 102.282 125.525C102.008 124.704 102.272 123.799 102.944 123.253L107.48 119.568L105.862 116.766L100.396 118.854C99.5875 119.163 98.671 118.939 98.0965 118.291C97.5345 117.657 96.929 117.051 96.2967 116.49C95.6489 115.916 95.4244 115.001 95.7336 114.192L97.8218 108.725L95.0192 107.107L91.3334 111.645C90.7873 112.317 89.881 112.58 89.0597 112.306C88.2543 112.036 87.4269 111.814 86.6003 111.647C85.7511 111.474 85.098 110.793 84.9608 109.937L84.0371 104.165H80.8014L79.8781 109.937C79.7409 110.793 79.0878 111.474 78.2381 111.647C77.4036 111.816 76.5763 112.037 75.7792 112.305C74.9571 112.579 74.0512 112.316 73.5047 111.644L69.8192 107.107L67.0171 108.725L69.1053 114.192C69.4145 115.001 69.19 115.917 68.5418 116.491C67.9083 117.052 67.3032 117.658 66.7423 118.29C66.1678 118.938 65.2521 119.163 64.4432 118.854L58.9773 116.766L57.3589 119.568L61.8951 123.254C62.5675 123.8 62.8305 124.706 62.5561 125.527C62.2863 126.333 62.0648 127.161 61.8977 127.986C61.7258 128.836 61.0447 129.489 60.1882 129.627L54.4158 130.551V133.786L60.1882 134.71C61.0443 134.847 61.7258 135.501 61.8981 136.351C62.0655 137.178 62.287 138.006 62.5561 138.811C62.8298 139.632 62.5663 140.538 61.8947 141.084L57.3589 144.769L58.9769 147.571L64.4429 145.483C65.2524 145.174 66.1675 145.398 66.7419 146.046C67.3043 146.681 67.9098 147.286 68.5414 147.846C69.1896 148.42 69.4141 149.336 69.1049 150.145L67.0163 155.611L69.8189 157.229L73.5047 152.692C74.0508 152.02 74.9567 151.757 75.7784 152.031C76.5831 152.3 77.4104 152.522 78.237 152.69C79.0866 152.862 79.7401 153.543 79.8773 154.399L80.8014 160.172Z" fill="white"/>
<path fill-rule="evenodd" clip-rule="evenodd" d="M82.4194 146.25C74.6555 146.25 68.3388 139.934 68.3388 132.169C68.3388 124.405 74.6552 118.089 82.4194 118.089C90.1837 118.089 96.4996 124.405 96.4996 132.169C96.4996 139.933 90.1837 146.25 82.4194 146.25ZM82.4194 122.248C76.9489 122.248 72.4985 126.699 72.4985 132.169C72.4985 137.64 76.9489 142.091 82.4194 142.091C87.8895 142.091 92.3403 137.64 92.3403 132.169C92.3403 126.699 87.8896 122.248 82.4194 122.248Z" fill="white"/>
</g>
<defs>
<clipPath id="clip0_2_24">
<rect width="163.839" height="163.839" fill="white" transform="translate(0.5 0.5)"/>
</clipPath>
</defs>
</svg>
