<svg width="32" height="32" viewBox="0 0 32 32" fill="none" xmlns="http://www.w3.org/2000/svg">
<g clip-path="url(#clip0_2_51)">
<mask id="mask0_2_51" style="mask-type:luminance" maskUnits="userSpaceOnUse" x="0" y="0" width="32" height="32">
<path d="M0 -9.53674e-07H32V32H0V-9.53674e-07Z" fill="white"/>
</mask>
<g mask="url(#mask0_2_51)">
<path d="M0 30.6667H13.3333" stroke="white" stroke-width="2.66667" stroke-miterlimit="10"/>
<path d="M0 25.3333H10.6667" stroke="white" stroke-width="2.66667" stroke-miterlimit="10"/>
<path d="M0 20H8" stroke="white" stroke-width="2.66667" stroke-miterlimit="10"/>
<path d="M16 -9.53674e-07C7.17733 -9.53674e-07 0 7.17733 0 16H2.66667C2.66667 8.648 8.648 2.66667 16 2.66667C23.352 2.66667 29.3333 8.648 29.3333 16C29.3333 23.352 23.352 29.3333 16 29.3333V32C24.8227 32 32 24.8227 32 16C32 7.17733 24.8227 -9.53674e-07 16 -9.53674e-07Z" fill="white"/>
<path d="M14.6667 9.33335V16.552L19.0573 20.9427L20.9427 19.0574L17.3333 15.448V9.33335H14.6667Z" fill="white"/>
</g>
</g>
<defs>
<clipPath id="clip0_2_51">
<rect width="32" height="32" fill="white"/>
</clipPath>
</defs>
</svg>
